# xmcd
#
# Track frame offsets: 
#        150
#        20944
#        42019
#        59903
#        85997
#        106215
#        130409
#        149718
#        165779
#        187949
#        211348
#
# Disc length: 3083 seconds
#
# Revision: 0
# Processed by: cddbd v1.5.1PL2 Copyright (c) Steve Scherf et al.
# Submitted via: ExactAudioCopy v0.95b3
#
DISCID=9e0c090b
DTITLE=费星 - 秋夜
DYEAR=1900
DGENRE=Vocal
TTITLE0=每次想你
TTITLE1=秋夜
TTITLE2=青春舞曲
TTITLE3=东去列车
TTITLE4=送别
TTITLE5=爱情年代
TTITLE6=牧歌
TTITLE7=莫斯科郊外的晚上
TTITLE8=秋风
TTITLE9=情歌
TTITLE10=美丽的草原我的家
EXTD=
EXTT0=
EXTT1=
EXTT2=
EXTT3=
EXTT4=
EXTT5=
EXTT6=
EXTT7=
EXTT8=
EXTT9=
EXTT10=
PLAYORDER=
